<svg width="180" height="160" viewBox="0 0 180 160" fill="none" xmlns="http://www.w3.org/2000/svg">
<g clip-path="url(#clip0)">
<path d="M22.8981 70C20.2994 70 19 68.6711 19 66.0133V43.3776C19 40.7494 20.2846 39.4352 22.8538 39.4352C25.1868 39.4352 26.4714 40.5279 26.7076 42.7132C27.2983 41.6796 28.1842 40.8675 29.3654 40.2769C30.5762 39.6567 31.9051 39.3466 33.3522 39.3466C35.2126 39.3466 36.8516 39.8044 38.2691 40.7198C39.7161 41.6353 40.8383 42.9494 41.6357 44.6622C42.4625 46.3455 42.876 48.3684 42.876 50.7309C42.876 53.0639 42.4773 55.0867 41.68 56.7996C40.8826 58.5124 39.7604 59.8265 38.3134 60.742C36.8959 61.6574 35.2422 62.1152 33.3522 62.1152C31.9937 62.1152 30.7239 61.8346 29.5426 61.2735C28.3909 60.7124 27.505 59.9594 26.8848 59.0144V66.0133C26.8848 67.3127 26.5304 68.302 25.8217 68.9812C25.1425 69.6604 24.168 70 22.8981 70ZM30.8715 56.3123C32.0528 56.3123 33.0273 55.8693 33.7951 54.9834C34.5629 54.0975 34.9468 52.68 34.9468 50.7309C34.9468 48.7523 34.5629 47.3348 33.7951 46.4784C33.0273 45.5925 32.0528 45.1495 30.8715 45.1495C29.6608 45.1495 28.6715 45.5925 27.9037 46.4784C27.1358 47.3348 26.7519 48.7523 26.7519 50.7309C26.7519 52.68 27.1358 54.0975 27.9037 54.9834C28.6715 55.8693 29.6608 56.3123 30.8715 56.3123Z" fill="#FC0A0A"/>
<path d="M54.044 62.1152C52.3608 62.1152 50.8694 61.8051 49.5701 61.1849C48.3002 60.5648 47.2962 59.7231 46.5579 58.66C45.8491 57.5674 45.4948 56.3271 45.4948 54.9391C45.4948 53.3739 45.9082 52.1336 46.7351 51.2182C47.562 50.2732 48.8909 49.6087 50.7218 49.2248C52.5527 48.8114 54.989 48.6047 58.0308 48.6047H59.714V47.9845C59.714 46.9214 59.4335 46.1683 58.8724 45.7254C58.3408 45.2824 57.4106 45.0609 56.0817 45.0609C55.3434 45.0609 54.5313 45.1495 53.6454 45.3267C52.789 45.4743 51.8144 45.7549 50.7218 46.1683C49.7473 46.5227 48.9352 46.5079 48.2855 46.124C47.6358 45.7401 47.2076 45.1938 47.0009 44.485C46.8237 43.7468 46.8975 43.0233 47.2223 42.3145C47.5767 41.5762 48.2412 41.0299 49.2157 40.6755C50.6332 40.1735 51.9326 39.8339 53.1138 39.6567C54.3246 39.45 55.432 39.3466 56.4361 39.3466C60.0684 39.3466 62.7557 40.1292 64.4981 41.6944C66.27 43.2595 67.1559 45.7254 67.1559 49.0919V58.0399C67.1559 60.6977 65.945 62.0266 63.5236 62.0266C61.22 62.0266 59.9946 60.8453 59.8469 58.4828C59.4335 59.605 58.7247 60.491 57.7207 61.1406C56.7166 61.7903 55.4911 62.1152 54.044 62.1152ZM55.8159 56.9767C56.9086 56.9767 57.8239 56.6224 58.5623 55.9136C59.3301 55.2049 59.714 54.2746 59.714 53.1229V52.3256H58.0308C56.2884 52.3256 55.0038 52.5175 54.1769 52.9014C53.3796 53.2558 52.9809 53.8317 52.9809 54.629C52.9809 55.3082 53.2172 55.8693 53.6897 56.3123C54.1917 56.7553 54.9005 56.9767 55.8159 56.9767Z" fill="#FC0A0A"/>
<path d="M79.9293 62.1152C77.0648 62.1152 74.968 61.3621 73.6391 59.856C72.3102 58.3204 71.6458 56.017 71.6458 52.9457V33.9867C71.6458 31.3289 72.9452 30 75.5439 30C76.8138 30 77.7883 30.3396 78.4675 31.0188C79.1762 31.698 79.5306 32.6873 79.5306 33.9867V52.68C79.5306 53.7726 79.7373 54.57 80.1508 55.072C80.5937 55.574 81.1548 55.825 81.8341 55.825C82.0408 55.825 82.2475 55.8103 82.4542 55.7807C82.6905 55.7217 82.9415 55.6774 83.2073 55.6478C83.7388 55.6478 84.1227 55.8398 84.359 56.2237C84.5952 56.6076 84.7133 57.3902 84.7133 58.5714C84.7133 59.605 84.5066 60.3876 84.0932 60.9192C83.6797 61.4212 83.0448 61.746 82.1884 61.8937C81.9522 61.9528 81.6126 61.997 81.1696 62.0266C80.7266 62.0856 80.3132 62.1152 79.9293 62.1152Z" fill="#FC0A0A"/>
<path d="M94.6205 62.1152C92.9372 62.1152 91.4459 61.8051 90.1465 61.1849C88.8767 60.5648 87.8726 59.7231 87.1343 58.66C86.4256 57.5674 86.0712 56.3271 86.0712 54.9391C86.0712 53.3739 86.4846 52.1336 87.3115 51.2182C88.1384 50.2732 89.4673 49.6087 91.2982 49.2248C93.1292 48.8114 95.5655 48.6047 98.6072 48.6047H100.29V47.9845C100.29 46.9214 100.01 46.1683 99.4488 45.7254C98.9173 45.2824 97.9871 45.0609 96.6581 45.0609C95.9199 45.0609 95.1078 45.1495 94.2218 45.3267C93.3654 45.4743 92.3909 45.7549 91.2982 46.1683C90.3237 46.5227 89.5116 46.5079 88.8619 46.124C88.2122 45.7401 87.784 45.1938 87.5773 44.485C87.4001 43.7468 87.474 43.0233 87.7988 42.3145C88.1532 41.5762 88.8176 41.0299 89.7921 40.6755C91.2096 40.1735 92.509 39.8339 93.6903 39.6567C94.901 39.45 96.0085 39.3466 97.0125 39.3466C100.645 39.3466 103.332 40.1292 105.074 41.6944C106.846 43.2595 107.732 45.7254 107.732 49.0919V58.0399C107.732 60.6977 106.522 62.0266 104.1 62.0266C101.797 62.0266 100.571 60.8453 100.423 58.4828C100.01 59.605 99.3012 60.491 98.2971 61.1406C97.2931 61.7903 96.0675 62.1152 94.6205 62.1152ZM96.3924 56.9767C97.485 56.9767 98.4005 56.6224 99.1388 55.9136C99.9066 55.2049 100.29 54.2746 100.29 53.1229V52.3256H98.6072C96.8649 52.3256 95.5803 52.5175 94.7534 52.9014C93.956 53.2558 93.5574 53.8317 93.5574 54.629C93.5574 55.3082 93.7936 55.8693 94.2661 56.3123C94.7682 56.7553 95.4769 56.9767 96.3924 56.9767Z" fill="#FC0A0A"/>
<path d="M116.12 70C113.522 70 112.222 68.6711 112.222 66.0133V43.3776C112.222 40.7494 113.507 39.4352 116.076 39.4352C118.409 39.4352 119.694 40.5279 119.93 42.7132C120.521 41.6796 121.406 40.8675 122.588 40.2769C123.798 39.6567 125.127 39.3466 126.574 39.3466C128.435 39.3466 130.074 39.8044 131.491 40.7198C132.938 41.6353 134.061 42.9494 134.858 44.6622C135.685 46.3455 136.098 48.3684 136.098 50.7309C136.098 53.0639 135.7 55.0867 134.902 56.7996C134.105 58.5124 132.983 59.8265 131.536 60.742C130.118 61.6574 128.464 62.1152 126.574 62.1152C125.216 62.1152 123.946 61.8346 122.765 61.2735C121.613 60.7124 120.727 59.9594 120.107 59.0144V66.0133C120.107 67.3127 119.753 68.302 119.044 68.9812C118.365 69.6604 117.39 70 116.12 70ZM124.094 56.3123C125.275 56.3123 126.25 55.8693 127.017 54.9834C127.785 54.0975 128.169 52.68 128.169 50.7309C128.169 48.7523 127.785 47.3348 127.017 46.4784C126.25 45.5925 125.275 45.1495 124.094 45.1495C122.883 45.1495 121.894 45.5925 121.126 46.4784C120.358 47.3348 119.974 48.7523 119.974 50.7309C119.974 52.68 120.358 54.0975 121.126 54.9834C121.894 55.8693 122.883 56.3123 124.094 56.3123Z" fill="#FC0A0A"/>
<path d="M147.266 62.1152C145.583 62.1152 144.092 61.8051 142.792 61.1849C141.522 60.5648 140.518 59.7231 139.78 58.66C139.071 57.5674 138.717 56.3271 138.717 54.9391C138.717 53.3739 139.13 52.1336 139.957 51.2182C140.784 50.2732 142.113 49.6087 143.944 49.2248C145.775 48.8114 148.211 48.6047 151.253 48.6047H152.936V47.9845C152.936 46.9214 152.656 46.1683 152.095 45.7254C151.563 45.2824 150.633 45.0609 149.304 45.0609C148.566 45.0609 147.753 45.1495 146.868 45.3267C146.011 45.4743 145.037 45.7549 143.944 46.1683C142.969 46.5227 142.157 46.5079 141.508 46.124C140.858 45.7401 140.43 45.1938 140.223 44.485C140.046 43.7468 140.12 43.0233 140.444 42.3145C140.799 41.5762 141.463 41.0299 142.438 40.6755C143.855 40.1735 145.155 39.8339 146.336 39.6567C147.547 39.45 148.654 39.3466 149.658 39.3466C153.291 39.3466 155.978 40.1292 157.72 41.6944C159.492 43.2595 160.378 45.7254 160.378 49.0919V58.0399C160.378 60.6977 159.167 62.0266 156.746 62.0266C154.442 62.0266 153.217 60.8453 153.069 58.4828C152.656 59.605 151.947 60.491 150.943 61.1406C149.939 61.7903 148.713 62.1152 147.266 62.1152ZM149.038 56.9767C150.131 56.9767 151.046 56.6224 151.784 55.9136C152.552 55.2049 152.936 54.2746 152.936 53.1229V52.3256H151.253C149.511 52.3256 148.226 52.5175 147.399 52.9014C146.602 53.2558 146.203 53.8317 146.203 54.629C146.203 55.3082 146.439 55.8693 146.912 56.3123C147.414 56.7553 148.123 56.9767 149.038 56.9767Z" fill="#FC0A0A"/>
</g>
<path d="M17.2623 126.789C17.197 126.896 17.1293 126.976 17.0593 127.027C16.994 127.074 16.9076 127.097 16.8003 127.097C16.6976 127.097 16.5856 127.062 16.4643 126.992C16.3476 126.917 16.21 126.838 16.0513 126.754C15.8926 126.67 15.7106 126.593 15.5053 126.523C15.3 126.448 15.0596 126.411 14.7843 126.411C14.299 126.411 13.935 126.521 13.6923 126.74C13.4496 126.955 13.3283 127.237 13.3283 127.587C13.3283 127.811 13.3936 127.998 13.5243 128.147C13.6596 128.292 13.8346 128.418 14.0493 128.525C14.2686 128.632 14.516 128.728 14.7913 128.812C15.0666 128.896 15.349 128.989 15.6383 129.092C15.9276 129.19 16.21 129.307 16.4853 129.442C16.7606 129.577 17.0056 129.748 17.2203 129.953C17.4396 130.158 17.6146 130.41 17.7453 130.709C17.8806 131.003 17.9483 131.362 17.9483 131.787C17.9483 132.249 17.8666 132.683 17.7033 133.089C17.5446 133.49 17.3136 133.843 17.0103 134.146C16.707 134.445 16.3313 134.68 15.8833 134.853C15.44 135.026 14.936 135.112 14.3713 135.112C14.0493 135.112 13.7273 135.079 13.4053 135.014C13.088 134.949 12.78 134.858 12.4813 134.741C12.1873 134.624 11.9096 134.484 11.6483 134.321C11.387 134.158 11.1583 133.976 10.9623 133.775L11.5783 132.781C11.6296 132.706 11.6973 132.646 11.7813 132.599C11.8653 132.548 11.954 132.522 12.0473 132.522C12.1733 132.522 12.3063 132.569 12.4463 132.662C12.5863 132.755 12.7473 132.858 12.9293 132.97C13.1113 133.082 13.3213 133.185 13.5593 133.278C13.802 133.371 14.0913 133.418 14.4273 133.418C14.9173 133.418 15.2953 133.306 15.5613 133.082C15.832 132.858 15.9673 132.524 15.9673 132.081C15.9673 131.824 15.8996 131.617 15.7643 131.458C15.6336 131.299 15.461 131.166 15.2463 131.059C15.0316 130.952 14.7866 130.861 14.5113 130.786C14.236 130.707 13.9536 130.62 13.6643 130.527C13.375 130.434 13.0926 130.322 12.8173 130.191C12.542 130.06 12.297 129.888 12.0823 129.673C11.8676 129.458 11.6926 129.192 11.5573 128.875C11.4266 128.558 11.3613 128.163 11.3613 127.692C11.3613 127.314 11.436 126.948 11.5853 126.593C11.7346 126.238 11.954 125.923 12.2433 125.648C12.5326 125.373 12.8873 125.151 13.3073 124.983C13.732 124.815 14.2173 124.731 14.7633 124.731C15.3746 124.731 15.9393 124.827 16.4573 125.018C16.98 125.205 17.421 125.466 17.7803 125.802L17.2623 126.789ZM23.6292 133.32C23.9699 133.32 24.2756 133.264 24.5462 133.152C24.8169 133.035 25.0456 132.872 25.2322 132.662C25.4189 132.452 25.5612 132.198 25.6592 131.899C25.7572 131.6 25.8062 131.264 25.8062 130.891V124.843H27.9062V130.891C27.9062 131.507 27.8059 132.074 27.6052 132.592C27.4092 133.105 27.1269 133.549 26.7582 133.922C26.3896 134.295 25.9416 134.587 25.4142 134.797C24.8869 135.007 24.2919 135.112 23.6292 135.112C22.9666 135.112 22.3692 135.007 21.8372 134.797C21.3099 134.587 20.8619 134.295 20.4932 133.922C20.1246 133.549 19.8399 133.105 19.6392 132.592C19.4432 132.074 19.3452 131.507 19.3452 130.891V124.843H21.4452V130.891C21.4452 131.264 21.4942 131.6 21.5922 131.899C21.6902 132.198 21.8326 132.452 22.0192 132.662C22.2059 132.872 22.4346 133.035 22.7052 133.152C22.9759 133.264 23.2839 133.32 23.6292 133.32ZM33.0809 129.652C33.4215 129.652 33.7155 129.61 33.9629 129.526C34.2102 129.437 34.4132 129.318 34.5719 129.169C34.7305 129.015 34.8472 128.835 34.9219 128.63C34.9965 128.425 35.0339 128.201 35.0339 127.958C35.0339 127.477 34.8729 127.104 34.5509 126.838C34.2335 126.572 33.7482 126.439 33.0949 126.439H32.0029V129.652H33.0809ZM38.0019 135H36.1049C35.7502 135 35.4935 134.865 35.3349 134.594L33.4029 131.479C33.3235 131.358 33.2349 131.269 33.1369 131.213C33.0435 131.157 32.9035 131.129 32.7169 131.129H32.0029V135H29.9029V124.843H33.0949C33.8042 124.843 34.4109 124.918 34.9149 125.067C35.4189 125.212 35.8319 125.415 36.1539 125.676C36.4759 125.937 36.7115 126.25 36.8609 126.614C37.0102 126.973 37.0849 127.37 37.0849 127.804C37.0849 128.14 37.0359 128.46 36.9379 128.763C36.8445 129.062 36.7069 129.335 36.5249 129.582C36.3429 129.829 36.1189 130.049 35.8529 130.24C35.5869 130.431 35.2835 130.585 34.9429 130.702C35.0782 130.777 35.2042 130.868 35.3209 130.975C35.4375 131.078 35.5425 131.201 35.6359 131.346L38.0019 135ZM47.5429 124.843L43.4549 135H41.5509L37.4629 124.843H39.1569C39.3389 124.843 39.4859 124.887 39.5979 124.976C39.7145 125.06 39.8009 125.17 39.8569 125.305L42.0549 131.157C42.1389 131.376 42.2205 131.617 42.2999 131.878C42.3839 132.135 42.4609 132.405 42.5309 132.69C42.5915 132.405 42.6569 132.135 42.7269 131.878C42.8015 131.617 42.8809 131.376 42.9649 131.157L45.1489 125.305C45.1955 125.188 45.2772 125.083 45.3939 124.99C45.5152 124.892 45.6645 124.843 45.8419 124.843H47.5429ZM50.5969 126.488V129.099H53.9849V130.688H50.5969V133.355H54.9509V135H48.4829V124.843H54.9509V126.488H50.5969ZM61.114 131.094V135H59.014V131.094L55.325 124.843H57.173C57.355 124.843 57.4997 124.887 57.607 124.976C57.719 125.06 57.8077 125.17 57.873 125.305L59.539 128.504C59.651 128.719 59.7513 128.919 59.84 129.106C59.9333 129.293 60.015 129.479 60.085 129.666C60.1503 129.479 60.225 129.293 60.309 129.106C60.3977 128.915 60.4957 128.714 60.603 128.504L62.255 125.305C62.311 125.193 62.395 125.088 62.507 124.99C62.619 124.892 62.7637 124.843 62.941 124.843H64.803L61.114 131.094ZM79.6849 124.843V135H77.8299V128.763C77.8299 128.632 77.8322 128.492 77.8369 128.343C77.8462 128.194 77.8602 128.042 77.8789 127.888L74.9739 133.397C74.8152 133.7 74.5702 133.852 74.2389 133.852H73.9449C73.7816 133.852 73.6369 133.815 73.5109 133.74C73.3849 133.661 73.2846 133.546 73.2099 133.397L70.2909 127.867C70.3049 128.03 70.3166 128.189 70.3259 128.343C70.3352 128.492 70.3399 128.632 70.3399 128.763V135H68.4849V124.843H70.0809C70.1696 124.843 70.2489 124.845 70.3189 124.85C70.3889 124.855 70.4496 124.869 70.5009 124.892C70.5569 124.911 70.6059 124.943 70.6479 124.99C70.6946 125.032 70.7389 125.093 70.7809 125.172L73.6229 130.59C73.7116 130.753 73.7932 130.921 73.8679 131.094C73.9472 131.267 74.0219 131.444 74.0919 131.626C74.1619 131.439 74.2342 131.257 74.3089 131.08C74.3882 130.903 74.4722 130.732 74.5609 130.569L77.3819 125.172C77.4239 125.093 77.4682 125.032 77.5149 124.99C77.5616 124.943 77.6106 124.911 77.6619 124.892C77.7179 124.869 77.7786 124.855 77.8439 124.85C77.9139 124.845 77.9956 124.843 78.0889 124.843H79.6849ZM87.1633 131.143L86.0643 128.035C85.999 127.872 85.929 127.68 85.8543 127.461C85.7843 127.242 85.7166 127.004 85.6513 126.747C85.586 127.008 85.516 127.251 85.4413 127.475C85.3713 127.694 85.3036 127.886 85.2383 128.049L84.1463 131.143H87.1633ZM90.6913 135H89.0603C88.8783 135 88.729 134.958 88.6123 134.874C88.5003 134.785 88.4163 134.673 88.3603 134.538L87.6743 132.599H83.6283L82.9423 134.538C82.8956 134.655 82.814 134.762 82.6973 134.86C82.5806 134.953 82.4336 135 82.2563 135H80.6113L84.5803 124.843H86.7293L90.6913 135ZM100.332 124.843V135H99.2474C99.084 135 98.9464 134.974 98.8344 134.923C98.7224 134.867 98.6127 134.774 98.5054 134.643L93.4444 128.203C93.4584 128.366 93.4677 128.527 93.4724 128.686C93.4817 128.845 93.4864 128.992 93.4864 129.127V135H91.6314V124.843H92.7374C92.826 124.843 92.9007 124.848 92.9614 124.857C93.0267 124.862 93.085 124.878 93.1364 124.906C93.1877 124.929 93.2367 124.962 93.2834 125.004C93.33 125.046 93.3814 125.102 93.4374 125.172L98.5334 131.64C98.5147 131.463 98.5007 131.292 98.4914 131.129C98.482 130.961 98.4774 130.802 98.4774 130.653V124.843H100.332ZM107.822 131.143L106.723 128.035C106.657 127.872 106.587 127.68 106.513 127.461C106.443 127.242 106.375 127.004 106.31 126.747C106.244 127.008 106.174 127.251 106.1 127.475C106.03 127.694 105.962 127.886 105.897 128.049L104.805 131.143H107.822ZM111.35 135H109.719C109.537 135 109.387 134.958 109.271 134.874C109.159 134.785 109.075 134.673 109.019 134.538L108.333 132.599H104.287L103.601 134.538C103.554 134.655 103.472 134.762 103.356 134.86C103.239 134.953 103.092 135 102.915 135H101.27L105.239 124.843H107.388L111.35 135ZM116.917 129.827H120.403V134.02C119.885 134.398 119.332 134.676 118.744 134.853C118.161 135.026 117.542 135.112 116.889 135.112C116.054 135.112 115.298 134.984 114.621 134.727C113.944 134.466 113.366 134.104 112.885 133.642C112.404 133.18 112.033 132.632 111.772 131.997C111.511 131.362 111.38 130.669 111.38 129.918C111.38 129.157 111.504 128.46 111.751 127.825C112.003 127.19 112.36 126.644 112.822 126.187C113.284 125.73 113.842 125.373 114.495 125.116C115.153 124.859 115.888 124.731 116.7 124.731C117.12 124.731 117.512 124.766 117.876 124.836C118.24 124.901 118.576 124.995 118.884 125.116C119.192 125.233 119.474 125.373 119.731 125.536C119.988 125.699 120.221 125.879 120.431 126.075L119.822 127.013C119.729 127.162 119.607 127.253 119.458 127.286C119.309 127.319 119.145 127.281 118.968 127.174C118.8 127.071 118.634 126.98 118.471 126.901C118.312 126.817 118.142 126.745 117.96 126.684C117.778 126.623 117.58 126.577 117.365 126.544C117.15 126.511 116.903 126.495 116.623 126.495C116.152 126.495 115.725 126.577 115.342 126.74C114.959 126.903 114.633 127.134 114.362 127.433C114.096 127.732 113.891 128.091 113.746 128.511C113.601 128.931 113.529 129.4 113.529 129.918C113.529 130.478 113.608 130.98 113.767 131.423C113.926 131.862 114.15 132.233 114.439 132.536C114.728 132.839 115.074 133.07 115.475 133.229C115.881 133.388 116.331 133.467 116.826 133.467C117.162 133.467 117.461 133.434 117.722 133.369C117.988 133.299 118.247 133.206 118.499 133.089V131.381H117.351C117.216 131.381 117.108 131.346 117.029 131.276C116.954 131.201 116.917 131.108 116.917 130.996V129.827ZM124.234 126.488V129.099H127.622V130.688H124.234V133.355H128.588V135H122.12V124.843H128.588V126.488H124.234ZM141.359 124.843V135H139.504V128.763C139.504 128.632 139.506 128.492 139.511 128.343C139.52 128.194 139.534 128.042 139.553 127.888L136.648 133.397C136.489 133.7 136.244 133.852 135.913 133.852H135.619C135.455 133.852 135.311 133.815 135.185 133.74C135.059 133.661 134.958 133.546 134.884 133.397L131.965 127.867C131.979 128.03 131.99 128.189 132 128.343C132.009 128.492 132.014 128.632 132.014 128.763V135H130.159V124.843H131.755C131.843 124.843 131.923 124.845 131.993 124.85C132.063 124.855 132.123 124.869 132.175 124.892C132.231 124.911 132.28 124.943 132.322 124.99C132.368 125.032 132.413 125.093 132.455 125.172L135.297 130.59C135.385 130.753 135.467 130.921 135.542 131.094C135.621 131.267 135.696 131.444 135.766 131.626C135.836 131.439 135.908 131.257 135.983 131.08C136.062 130.903 136.146 130.732 136.235 130.569L139.056 125.172C139.098 125.093 139.142 125.032 139.189 124.99C139.235 124.943 139.284 124.911 139.336 124.892C139.392 124.869 139.452 124.855 139.518 124.85C139.588 124.845 139.669 124.843 139.763 124.843H141.359ZM145.589 126.488V129.099H148.977V130.688H145.589V133.355H149.943V135H143.475V124.843H149.943V126.488H145.589ZM160.215 124.843V135H159.13C158.967 135 158.829 134.974 158.717 134.923C158.605 134.867 158.496 134.774 158.388 134.643L153.327 128.203C153.341 128.366 153.351 128.527 153.355 128.686C153.365 128.845 153.369 128.992 153.369 129.127V135H151.514V124.843H152.62C152.709 124.843 152.784 124.848 152.844 124.857C152.91 124.862 152.968 124.878 153.019 124.906C153.071 124.929 153.12 124.962 153.166 125.004C153.213 125.046 153.264 125.102 153.32 125.172L158.416 131.64C158.398 131.463 158.384 131.292 158.374 131.129C158.365 130.961 158.36 130.802 158.36 130.653V124.843H160.215ZM169.531 126.537H166.563V135H164.456V126.537H161.488V124.843H169.531V126.537ZM69.6598 146.789C69.5944 146.896 69.5268 146.976 69.4568 147.027C69.3914 147.074 69.3051 147.097 69.1978 147.097C69.0951 147.097 68.9831 147.062 68.8618 146.992C68.7451 146.917 68.6074 146.838 68.4488 146.754C68.2901 146.67 68.1081 146.593 67.9028 146.523C67.6974 146.448 67.4571 146.411 67.1818 146.411C66.6964 146.411 66.3324 146.521 66.0898 146.74C65.8471 146.955 65.7258 147.237 65.7258 147.587C65.7258 147.811 65.7911 147.998 65.9218 148.147C66.0571 148.292 66.2321 148.418 66.4468 148.525C66.6661 148.632 66.9134 148.728 67.1888 148.812C67.4641 148.896 67.7464 148.989 68.0358 149.092C68.3251 149.19 68.6074 149.307 68.8828 149.442C69.1581 149.577 69.4031 149.748 69.6178 149.953C69.8371 150.158 70.0121 150.41 70.1428 150.709C70.2781 151.003 70.3458 151.362 70.3458 151.787C70.3458 152.249 70.2641 152.683 70.1008 153.089C69.9421 153.49 69.7111 153.843 69.4078 154.146C69.1044 154.445 68.7288 154.68 68.2808 154.853C67.8374 155.026 67.3334 155.112 66.7688 155.112C66.4468 155.112 66.1248 155.079 65.8028 155.014C65.4854 154.949 65.1774 154.858 64.8788 154.741C64.5848 154.624 64.3071 154.484 64.0458 154.321C63.7844 154.158 63.5558 153.976 63.3598 153.775L63.9758 152.781C64.0271 152.706 64.0948 152.646 64.1788 152.599C64.2628 152.548 64.3514 152.522 64.4448 152.522C64.5708 152.522 64.7038 152.569 64.8438 152.662C64.9838 152.755 65.1448 152.858 65.3268 152.97C65.5088 153.082 65.7188 153.185 65.9568 153.278C66.1994 153.371 66.4888 153.418 66.8248 153.418C67.3148 153.418 67.6928 153.306 67.9588 153.082C68.2294 152.858 68.3648 152.524 68.3648 152.081C68.3648 151.824 68.2971 151.617 68.1618 151.458C68.0311 151.299 67.8584 151.166 67.6438 151.059C67.4291 150.952 67.1841 150.861 66.9088 150.786C66.6334 150.707 66.3511 150.62 66.0618 150.527C65.7724 150.434 65.4901 150.322 65.2148 150.191C64.9394 150.06 64.6944 149.888 64.4798 149.673C64.2651 149.458 64.0901 149.192 63.9548 148.875C63.8241 148.558 63.7588 148.163 63.7588 147.692C63.7588 147.314 63.8334 146.948 63.9828 146.593C64.1321 146.238 64.3514 145.923 64.6408 145.648C64.9301 145.373 65.2848 145.151 65.7048 144.983C66.1294 144.815 66.6148 144.731 67.1608 144.731C67.7721 144.731 68.3368 144.827 68.8548 145.018C69.3774 145.205 69.8184 145.466 70.1778 145.802L69.6598 146.789ZM76.2146 151.094V155H74.1146V151.094L70.4256 144.843H72.2736C72.4556 144.843 72.6003 144.887 72.7076 144.976C72.8196 145.06 72.9083 145.17 72.9736 145.305L74.6396 148.504C74.7516 148.719 74.8519 148.919 74.9406 149.106C75.0339 149.293 75.1156 149.479 75.1856 149.666C75.2509 149.479 75.3256 149.293 75.4096 149.106C75.4983 148.915 75.5963 148.714 75.7036 148.504L77.3556 145.305C77.4116 145.193 77.4956 145.088 77.6076 144.99C77.7196 144.892 77.8643 144.843 78.0416 144.843H79.9036L76.2146 151.094ZM85.9566 146.789C85.8913 146.896 85.8236 146.976 85.7536 147.027C85.6883 147.074 85.602 147.097 85.4946 147.097C85.392 147.097 85.28 147.062 85.1586 146.992C85.042 146.917 84.9043 146.838 84.7456 146.754C84.587 146.67 84.405 146.593 84.1996 146.523C83.9943 146.448 83.754 146.411 83.4786 146.411C82.9933 146.411 82.6293 146.521 82.3866 146.74C82.144 146.955 82.0226 147.237 82.0226 147.587C82.0226 147.811 82.088 147.998 82.2186 148.147C82.354 148.292 82.529 148.418 82.7436 148.525C82.963 148.632 83.2103 148.728 83.4856 148.812C83.761 148.896 84.0433 148.989 84.3326 149.092C84.622 149.19 84.9043 149.307 85.1796 149.442C85.455 149.577 85.7 149.748 85.9146 149.953C86.134 150.158 86.309 150.41 86.4396 150.709C86.575 151.003 86.6426 151.362 86.6426 151.787C86.6426 152.249 86.561 152.683 86.3976 153.089C86.239 153.49 86.008 153.843 85.7046 154.146C85.4013 154.445 85.0256 154.68 84.5776 154.853C84.1343 155.026 83.6303 155.112 83.0656 155.112C82.7436 155.112 82.4216 155.079 82.0996 155.014C81.7823 154.949 81.4743 154.858 81.1756 154.741C80.8816 154.624 80.604 154.484 80.3426 154.321C80.0813 154.158 79.8526 153.976 79.6566 153.775L80.2726 152.781C80.324 152.706 80.3916 152.646 80.4756 152.599C80.5596 152.548 80.6483 152.522 80.7416 152.522C80.8676 152.522 81.0006 152.569 81.1406 152.662C81.2806 152.755 81.4416 152.858 81.6236 152.97C81.8056 153.082 82.0156 153.185 82.2536 153.278C82.4963 153.371 82.7856 153.418 83.1216 153.418C83.6116 153.418 83.9896 153.306 84.2556 153.082C84.5263 152.858 84.6616 152.524 84.6616 152.081C84.6616 151.824 84.594 151.617 84.4586 151.458C84.328 151.299 84.1553 151.166 83.9406 151.059C83.726 150.952 83.481 150.861 83.2056 150.786C82.9303 150.707 82.648 150.62 82.3586 150.527C82.0693 150.434 81.787 150.322 81.5116 150.191C81.2363 150.06 80.9913 149.888 80.7766 149.673C80.562 149.458 80.387 149.192 80.2516 148.875C80.121 148.558 80.0556 148.163 80.0556 147.692C80.0556 147.314 80.1303 146.948 80.2796 146.593C80.429 146.238 80.6483 145.923 80.9376 145.648C81.227 145.373 81.5816 145.151 82.0016 144.983C82.4263 144.815 82.9116 144.731 83.4576 144.731C84.069 144.731 84.6336 144.827 85.1516 145.018C85.6743 145.205 86.1153 145.466 86.4746 145.802L85.9566 146.789ZM95.3546 146.537H92.3866V155H90.2796V146.537H87.3116V144.843H95.3546V146.537ZM98.7288 146.488V149.099H102.117V150.688H98.7288V153.355H103.083V155H96.6148V144.843H103.083V146.488H98.7288ZM115.854 144.843V155H113.999V148.763C113.999 148.632 114.001 148.492 114.006 148.343C114.015 148.194 114.029 148.042 114.048 147.888L111.143 153.397C110.984 153.7 110.739 153.852 110.408 153.852H110.114C109.951 153.852 109.806 153.815 109.68 153.74C109.554 153.661 109.454 153.546 109.379 153.397L106.46 147.867C106.474 148.03 106.486 148.189 106.495 148.343C106.504 148.492 106.509 148.632 106.509 148.763V155H104.654V144.843H106.25C106.339 144.843 106.418 144.845 106.488 144.85C106.558 144.855 106.619 144.869 106.67 144.892C106.726 144.911 106.775 144.943 106.817 144.99C106.864 145.032 106.908 145.093 106.95 145.172L109.792 150.59C109.881 150.753 109.962 150.921 110.037 151.094C110.116 151.267 110.191 151.444 110.261 151.626C110.331 151.439 110.403 151.257 110.478 151.08C110.557 150.903 110.641 150.732 110.73 150.569L113.551 145.172C113.593 145.093 113.637 145.032 113.684 144.99C113.731 144.943 113.78 144.911 113.831 144.892C113.887 144.869 113.948 144.855 114.013 144.85C114.083 144.845 114.165 144.843 114.258 144.843H115.854Z" fill="black"/>
<defs>
<clipPath id="clip0">
<rect width="142" height="40" fill="white" transform="translate(19 30)"/>
</clipPath>
</defs>
</svg>
