<svg width="180" height="160" viewBox="0 0 180 160" fill="none" xmlns="http://www.w3.org/2000/svg">
<path d="M7.15999 52.904L5.38399 54.8V59H0.679993V42.2H5.38399V49.184L11.888 42.2H17.12L10.256 49.64L17.48 59H11.96L7.15999 52.904ZM31.2913 52.52C31.2913 52.552 31.2673 52.928 31.2193 53.648H21.7633C21.9553 54.32 22.3233 54.84 22.8672 55.208C23.4273 55.56 24.1233 55.736 24.9553 55.736C25.5793 55.736 26.1153 55.648 26.5633 55.472C27.0273 55.296 27.4913 55.008 27.9553 54.608L30.3553 57.104C29.0913 58.512 27.2433 59.216 24.8113 59.216C23.2913 59.216 21.9553 58.928 20.8033 58.352C19.6513 57.776 18.7553 56.976 18.1152 55.952C17.4913 54.928 17.1793 53.768 17.1793 52.472C17.1793 51.192 17.4833 50.048 18.0913 49.04C18.7153 48.016 19.5713 47.216 20.6593 46.64C21.7473 46.064 22.9713 45.776 24.3313 45.776C25.6273 45.776 26.8033 46.048 27.8593 46.592C28.9153 47.12 29.7473 47.896 30.3553 48.92C30.9793 49.928 31.2913 51.128 31.2913 52.52ZM24.3553 49.016C23.6513 49.016 23.0593 49.216 22.5793 49.616C22.1153 50.016 21.8193 50.56 21.6913 51.248H27.0193C26.8913 50.56 26.5873 50.016 26.1073 49.616C25.6433 49.216 25.0593 49.016 24.3553 49.016ZM33.3937 41.192H37.9537V59H33.3937V41.192ZM46.4611 45.776C48.6211 45.776 50.2691 46.272 51.4051 47.264C52.5411 48.24 53.1091 49.744 53.1091 51.776V59H48.8611V57.32C48.2051 58.584 46.9251 59.216 45.0211 59.216C44.0131 59.216 43.1411 59.04 42.4051 58.688C41.6691 58.336 41.1091 57.864 40.7251 57.272C40.3571 56.664 40.1731 55.976 40.1731 55.208C40.1731 53.976 40.6451 53.024 41.5891 52.352C42.5331 51.664 43.9891 51.32 45.9571 51.32H48.5491C48.4691 49.944 47.5491 49.256 45.7891 49.256C45.1651 49.256 44.5331 49.36 43.8931 49.568C43.2531 49.76 42.7091 50.032 42.2611 50.384L40.7251 47.288C41.4451 46.808 42.3171 46.44 43.3411 46.184C44.3811 45.912 45.4211 45.776 46.4611 45.776ZM46.2931 56.336C46.8211 56.336 47.2851 56.208 47.6851 55.952C48.0851 55.696 48.3731 55.32 48.5491 54.824V53.696H46.5811C45.2531 53.696 44.5891 54.136 44.5891 55.016C44.5891 55.416 44.7411 55.736 45.0451 55.976C45.3491 56.216 45.7651 56.336 46.2931 56.336ZM60.7154 59.216C59.6274 59.216 58.5554 59.096 57.4994 58.856C56.4434 58.6 55.5954 58.272 54.9554 57.872L56.3234 54.752C56.9154 55.12 57.6194 55.416 58.4354 55.64C59.2514 55.848 60.0594 55.952 60.8594 55.952C61.5954 55.952 62.1154 55.88 62.4194 55.736C62.7394 55.576 62.8994 55.352 62.8994 55.064C62.8994 54.776 62.7074 54.576 62.3234 54.464C61.9554 54.336 61.3634 54.216 60.5474 54.104C59.5074 53.976 58.6194 53.808 57.8834 53.6C57.1634 53.392 56.5394 53.008 56.0114 52.448C55.4834 51.888 55.2194 51.104 55.2194 50.096C55.2194 49.264 55.4674 48.528 55.9634 47.888C56.4594 47.232 57.1794 46.72 58.1234 46.352C59.0834 45.968 60.2274 45.776 61.5554 45.776C62.4994 45.776 63.4354 45.872 64.3634 46.064C65.2914 46.256 66.0674 46.528 66.6914 46.88L65.3234 49.976C64.1714 49.336 62.9234 49.016 61.5794 49.016C60.8594 49.016 60.3314 49.104 59.9954 49.28C59.6594 49.44 59.4914 49.656 59.4914 49.928C59.4914 50.232 59.6754 50.448 60.0434 50.576C60.4114 50.688 61.0194 50.808 61.8674 50.936C62.9394 51.096 63.8274 51.28 64.5314 51.488C65.2354 51.696 65.8434 52.08 66.3554 52.64C66.8834 53.184 67.1474 53.952 67.1474 54.944C67.1474 55.76 66.8994 56.496 66.4034 57.152C65.9074 57.792 65.1714 58.296 64.1954 58.664C63.2354 59.032 62.0754 59.216 60.7154 59.216ZM80.5844 55.736H73.4804L72.1604 59H67.3124L74.7284 42.2H79.4084L86.8484 59H81.9044L80.5844 55.736ZM79.1924 52.232L77.0324 46.856L74.8724 52.232H79.1924ZM96.4516 45.776C98.0676 45.776 99.3636 46.256 100.34 47.216C101.332 48.176 101.828 49.624 101.828 51.56V59H97.2676V52.304C97.2676 50.528 96.5556 49.64 95.1316 49.64C94.3476 49.64 93.7156 49.896 93.2356 50.408C92.7716 50.92 92.5396 51.688 92.5396 52.712V59H87.9796V41.192H92.5396V47.192C93.0356 46.728 93.6196 46.376 94.2916 46.136C94.9636 45.896 95.6836 45.776 96.4516 45.776ZM104.691 41.192H109.251V59H104.691V41.192ZM112.214 45.992H116.774V59H112.214V45.992ZM114.494 44.552C113.662 44.552 112.99 44.32 112.478 43.856C111.966 43.392 111.71 42.816 111.71 42.128C111.71 41.44 111.966 40.864 112.478 40.4C112.99 39.936 113.662 39.704 114.494 39.704C115.326 39.704 115.998 39.928 116.51 40.376C117.022 40.808 117.278 41.368 117.278 42.056C117.278 42.776 117.022 43.376 116.51 43.856C115.998 44.32 115.326 44.552 114.494 44.552ZM121.657 59.216C120.889 59.216 120.241 58.96 119.713 58.448C119.185 57.936 118.921 57.288 118.921 56.504C118.921 55.704 119.177 55.056 119.689 54.56C120.217 54.064 120.873 53.816 121.657 53.816C122.457 53.816 123.113 54.064 123.625 54.56C124.137 55.056 124.393 55.704 124.393 56.504C124.393 57.288 124.129 57.936 123.601 58.448C123.089 58.96 122.441 59.216 121.657 59.216ZM133.112 59.216C131.672 59.216 130.384 58.928 129.248 58.352C128.112 57.776 127.224 56.976 126.584 55.952C125.96 54.928 125.648 53.768 125.648 52.472C125.648 51.176 125.96 50.024 126.584 49.016C127.224 47.992 128.112 47.2 129.248 46.64C130.384 46.064 131.672 45.776 133.112 45.776C134.584 45.776 135.856 46.096 136.928 46.736C138 47.36 138.76 48.232 139.208 49.352L135.68 51.152C135.088 49.984 134.224 49.4 133.088 49.4C132.272 49.4 131.592 49.672 131.048 50.216C130.52 50.76 130.256 51.512 130.256 52.472C130.256 53.448 130.52 54.216 131.048 54.776C131.592 55.32 132.272 55.592 133.088 55.592C134.224 55.592 135.088 55.008 135.68 53.84L139.208 55.64C138.76 56.76 138 57.64 136.928 58.28C135.856 58.904 134.584 59.216 133.112 59.216ZM147.312 59.216C145.92 59.216 144.664 58.928 143.544 58.352C142.424 57.776 141.544 56.976 140.904 55.952C140.28 54.928 139.968 53.768 139.968 52.472C139.968 51.192 140.28 50.04 140.904 49.016C141.544 47.992 142.416 47.2 143.52 46.64C144.64 46.064 145.904 45.776 147.312 45.776C148.72 45.776 149.984 46.064 151.104 46.64C152.224 47.2 153.096 47.992 153.72 49.016C154.344 50.024 154.656 51.176 154.656 52.472C154.656 53.768 154.344 54.928 153.72 55.952C153.096 56.976 152.224 57.776 151.104 58.352C149.984 58.928 148.72 59.216 147.312 59.216ZM147.312 55.592C148.112 55.592 148.768 55.32 149.28 54.776C149.792 54.216 150.048 53.448 150.048 52.472C150.048 51.512 149.792 50.76 149.28 50.216C148.768 49.672 148.112 49.4 147.312 49.4C146.512 49.4 145.856 49.672 145.344 50.216C144.832 50.76 144.576 51.512 144.576 52.472C144.576 53.448 144.832 54.216 145.344 54.776C145.856 55.32 146.512 55.592 147.312 55.592ZM173.713 45.776C175.313 45.776 176.585 46.256 177.529 47.216C178.489 48.176 178.969 49.624 178.969 51.56V59H174.409V52.304C174.409 51.392 174.233 50.72 173.881 50.288C173.545 49.856 173.065 49.64 172.441 49.64C171.753 49.64 171.201 49.88 170.785 50.36C170.369 50.84 170.161 51.568 170.161 52.544V59H165.601V52.304C165.601 50.528 164.945 49.64 163.633 49.64C162.929 49.64 162.369 49.88 161.953 50.36C161.537 50.84 161.329 51.568 161.329 52.544V59H156.769V45.992H161.113V47.36C161.593 46.832 162.161 46.44 162.817 46.184C163.489 45.912 164.217 45.776 165.001 45.776C165.913 45.776 166.729 45.944 167.449 46.28C168.169 46.616 168.753 47.128 169.201 47.816C169.713 47.16 170.361 46.656 171.145 46.304C171.929 45.952 172.785 45.776 173.713 45.776Z" fill="#1A1A1A"/>
<path d="M9.33123 133.292V135H3.30423V124.843H5.40423V133.292H9.33123ZM12.7327 126.488V129.099H16.1207V130.688H12.7327V133.355H17.0867V135H10.6187V124.843H17.0867V126.488H12.7327ZM24.0198 131.143L22.9208 128.035C22.8554 127.872 22.7854 127.68 22.7108 127.461C22.6408 127.242 22.5731 127.004 22.5078 126.747C22.4424 127.008 22.3724 127.251 22.2978 127.475C22.2278 127.694 22.1601 127.886 22.0948 128.049L21.0028 131.143H24.0198ZM27.5478 135H25.9168C25.7348 135 25.5854 134.958 25.4688 134.874C25.3568 134.785 25.2728 134.673 25.2168 134.538L24.5308 132.599H20.4848L19.7988 134.538C19.7521 134.655 19.6704 134.762 19.5538 134.86C19.4371 134.953 19.2901 135 19.1128 135H17.4677L21.4368 124.843H23.5858L27.5478 135ZM31.6658 129.652C32.0065 129.652 32.3005 129.61 32.5478 129.526C32.7952 129.437 32.9982 129.318 33.1568 129.169C33.3155 129.015 33.4322 128.835 33.5068 128.63C33.5815 128.425 33.6188 128.201 33.6188 127.958C33.6188 127.477 33.4578 127.104 33.1358 126.838C32.8185 126.572 32.3332 126.439 31.6798 126.439H30.5878V129.652H31.6658ZM36.5868 135H34.6898C34.3352 135 34.0785 134.865 33.9198 134.594L31.9878 131.479C31.9085 131.358 31.8198 131.269 31.7218 131.213C31.6285 131.157 31.4885 131.129 31.3018 131.129H30.5878V135H28.4878V124.843H31.6798C32.3892 124.843 32.9958 124.918 33.4998 125.067C34.0038 125.212 34.4168 125.415 34.7388 125.676C35.0608 125.937 35.2965 126.25 35.4458 126.614C35.5952 126.973 35.6698 127.37 35.6698 127.804C35.6698 128.14 35.6208 128.46 35.5228 128.763C35.4295 129.062 35.2918 129.335 35.1098 129.582C34.9278 129.829 34.7038 130.049 34.4378 130.24C34.1718 130.431 33.8685 130.585 33.5278 130.702C33.6632 130.777 33.7892 130.868 33.9058 130.975C34.0225 131.078 34.1275 131.201 34.2208 131.346L36.5868 135ZM46.2806 124.843V135H45.1956C45.0323 135 44.8946 134.974 44.7826 134.923C44.6706 134.867 44.561 134.774 44.4536 134.643L39.3926 128.203C39.4066 128.366 39.416 128.527 39.4206 128.686C39.43 128.845 39.4346 128.992 39.4346 129.127V135H37.5796V124.843H38.6856C38.7743 124.843 38.849 124.848 38.9096 124.857C38.975 124.862 39.0333 124.878 39.0846 124.906C39.136 124.929 39.185 124.962 39.2316 125.004C39.2783 125.046 39.3296 125.102 39.3856 125.172L44.4816 131.64C44.463 131.463 44.449 131.292 44.4396 131.129C44.4303 130.961 44.4256 130.802 44.4256 130.653V124.843H46.2806ZM50.5218 135H48.4078V124.843H50.5218V135ZM61.347 124.843V135H60.262C60.0987 135 59.961 134.974 59.849 134.923C59.737 134.867 59.6274 134.774 59.52 134.643L54.459 128.203C54.473 128.366 54.4824 128.527 54.487 128.686C54.4964 128.845 54.501 128.992 54.501 129.127V135H52.646V124.843H53.752C53.8407 124.843 53.9154 124.848 53.976 124.857C54.0414 124.862 54.0997 124.878 54.151 124.906C54.2024 124.929 54.2514 124.962 54.298 125.004C54.3447 125.046 54.396 125.102 54.452 125.172L59.548 131.64C59.5294 131.463 59.5154 131.292 59.506 131.129C59.4967 130.961 59.492 130.802 59.492 130.653V124.843H61.347ZM68.4162 129.827H71.9022V134.02C71.3842 134.398 70.8312 134.676 70.2432 134.853C69.6598 135.026 69.0415 135.112 68.3882 135.112C67.5528 135.112 66.7968 134.984 66.1202 134.727C65.4435 134.466 64.8648 134.104 64.3842 133.642C63.9035 133.18 63.5325 132.632 63.2712 131.997C63.0098 131.362 62.8792 130.669 62.8792 129.918C62.8792 129.157 63.0028 128.46 63.2502 127.825C63.5022 127.19 63.8592 126.644 64.3212 126.187C64.7832 125.73 65.3408 125.373 65.9942 125.116C66.6522 124.859 67.3872 124.731 68.1992 124.731C68.6192 124.731 69.0112 124.766 69.3752 124.836C69.7392 124.901 70.0752 124.995 70.3832 125.116C70.6912 125.233 70.9735 125.373 71.2302 125.536C71.4868 125.699 71.7202 125.879 71.9302 126.075L71.3212 127.013C71.2278 127.162 71.1065 127.253 70.9572 127.286C70.8078 127.319 70.6445 127.281 70.4672 127.174C70.2992 127.071 70.1335 126.98 69.9702 126.901C69.8115 126.817 69.6412 126.745 69.4592 126.684C69.2772 126.623 69.0788 126.577 68.8642 126.544C68.6495 126.511 68.4022 126.495 68.1222 126.495C67.6508 126.495 67.2238 126.577 66.8412 126.74C66.4585 126.903 66.1318 127.134 65.8612 127.433C65.5952 127.732 65.3898 128.091 65.2452 128.511C65.1005 128.931 65.0282 129.4 65.0282 129.918C65.0282 130.478 65.1075 130.98 65.2662 131.423C65.4248 131.862 65.6488 132.233 65.9382 132.536C66.2275 132.839 66.5728 133.07 66.9742 133.229C67.3802 133.388 67.8305 133.467 68.3252 133.467C68.6612 133.467 68.9598 133.434 69.2212 133.369C69.4872 133.299 69.7462 133.206 69.9982 133.089V131.381H68.8502C68.7148 131.381 68.6075 131.346 68.5282 131.276C68.4535 131.201 68.4162 131.108 68.4162 130.996V129.827ZM88.141 124.843V135H86.286V128.763C86.286 128.632 86.2883 128.492 86.293 128.343C86.3023 128.194 86.3163 128.042 86.335 127.888L83.43 133.397C83.2713 133.7 83.0263 133.852 82.695 133.852H82.401C82.2376 133.852 82.093 133.815 81.967 133.74C81.841 133.661 81.7406 133.546 81.666 133.397L78.747 127.867C78.761 128.03 78.7726 128.189 78.782 128.343C78.7913 128.492 78.796 128.632 78.796 128.763V135H76.941V124.843H78.537C78.6256 124.843 78.705 124.845 78.775 124.85C78.845 124.855 78.9056 124.869 78.957 124.892C79.013 124.911 79.062 124.943 79.104 124.99C79.1506 125.032 79.195 125.093 79.237 125.172L82.079 130.59C82.1676 130.753 82.2493 130.921 82.324 131.094C82.4033 131.267 82.478 131.444 82.548 131.626C82.618 131.439 82.6903 131.257 82.765 131.08C82.8443 130.903 82.9283 130.732 83.017 130.569L85.838 125.172C85.88 125.093 85.9243 125.032 85.971 124.99C86.0176 124.943 86.0666 124.911 86.118 124.892C86.174 124.869 86.2346 124.855 86.3 124.85C86.37 124.845 86.4516 124.843 86.545 124.843H88.141ZM95.6194 131.143L94.5204 128.035C94.455 127.872 94.385 127.68 94.3104 127.461C94.2404 127.242 94.1727 127.004 94.1074 126.747C94.042 127.008 93.972 127.251 93.8974 127.475C93.8274 127.694 93.7597 127.886 93.6944 128.049L92.6024 131.143H95.6194ZM99.1474 135H97.5164C97.3344 135 97.185 134.958 97.0684 134.874C96.9564 134.785 96.8724 134.673 96.8164 134.538L96.1304 132.599H92.0844L91.3984 134.538C91.3517 134.655 91.27 134.762 91.1534 134.86C91.0367 134.953 90.8897 135 90.7124 135H89.0674L93.0364 124.843H95.1854L99.1474 135ZM108.788 124.843V135H107.703C107.54 135 107.402 134.974 107.29 134.923C107.178 134.867 107.069 134.774 106.961 134.643L101.9 128.203C101.914 128.366 101.924 128.527 101.928 128.686C101.938 128.845 101.942 128.992 101.942 129.127V135H100.087V124.843H101.193C101.282 124.843 101.357 124.848 101.417 124.857C101.483 124.862 101.541 124.878 101.592 124.906C101.644 124.929 101.693 124.962 101.739 125.004C101.786 125.046 101.837 125.102 101.893 125.172L106.989 131.64C106.971 131.463 106.957 131.292 106.947 131.129C106.938 130.961 106.933 130.802 106.933 130.653V124.843H108.788ZM116.278 131.143L115.179 128.035C115.113 127.872 115.043 127.68 114.969 127.461C114.899 127.242 114.831 127.004 114.766 126.747C114.7 127.008 114.63 127.251 114.556 127.475C114.486 127.694 114.418 127.886 114.353 128.049L113.261 131.143H116.278ZM119.806 135H118.175C117.993 135 117.843 134.958 117.727 134.874C117.615 134.785 117.531 134.673 117.475 134.538L116.789 132.599H112.743L112.057 134.538C112.01 134.655 111.928 134.762 111.812 134.86C111.695 134.953 111.548 135 111.371 135H109.726L113.695 124.843H115.844L119.806 135ZM125.373 129.827H128.859V134.02C128.341 134.398 127.788 134.676 127.2 134.853C126.617 135.026 125.999 135.112 125.345 135.112C124.51 135.112 123.754 134.984 123.077 134.727C122.401 134.466 121.822 134.104 121.341 133.642C120.861 133.18 120.49 132.632 120.228 131.997C119.967 131.362 119.836 130.669 119.836 129.918C119.836 129.157 119.96 128.46 120.207 127.825C120.459 127.19 120.816 126.644 121.278 126.187C121.74 125.73 122.298 125.373 122.951 125.116C123.609 124.859 124.344 124.731 125.156 124.731C125.576 124.731 125.968 124.766 126.332 124.836C126.696 124.901 127.032 124.995 127.34 125.116C127.648 125.233 127.931 125.373 128.187 125.536C128.444 125.699 128.677 125.879 128.887 126.075L128.278 127.013C128.185 127.162 128.064 127.253 127.914 127.286C127.765 127.319 127.602 127.281 127.424 127.174C127.256 127.071 127.091 126.98 126.927 126.901C126.769 126.817 126.598 126.745 126.416 126.684C126.234 126.623 126.036 126.577 125.821 126.544C125.607 126.511 125.359 126.495 125.079 126.495C124.608 126.495 124.181 126.577 123.798 126.74C123.416 126.903 123.089 127.134 122.818 127.433C122.552 127.732 122.347 128.091 122.202 128.511C122.058 128.931 121.985 129.4 121.985 129.918C121.985 130.478 122.065 130.98 122.223 131.423C122.382 131.862 122.606 132.233 122.895 132.536C123.185 132.839 123.53 133.07 123.931 133.229C124.337 133.388 124.788 133.467 125.282 133.467C125.618 133.467 125.917 133.434 126.178 133.369C126.444 133.299 126.703 133.206 126.955 133.089V131.381H125.807C125.672 131.381 125.565 131.346 125.485 131.276C125.411 131.201 125.373 131.108 125.373 130.996V129.827ZM132.69 126.488V129.099H136.078V130.688H132.69V133.355H137.044V135H130.576V124.843H137.044V126.488H132.69ZM149.815 124.843V135H147.96V128.763C147.96 128.632 147.962 128.492 147.967 128.343C147.976 128.194 147.99 128.042 148.009 127.888L145.104 133.397C144.945 133.7 144.7 133.852 144.369 133.852H144.075C143.911 133.852 143.767 133.815 143.641 133.74C143.515 133.661 143.414 133.546 143.34 133.397L140.421 127.867C140.435 128.03 140.446 128.189 140.456 128.343C140.465 128.492 140.47 128.632 140.47 128.763V135H138.615V124.843H140.211C140.299 124.843 140.379 124.845 140.449 124.85C140.519 124.855 140.579 124.869 140.631 124.892C140.687 124.911 140.736 124.943 140.778 124.99C140.824 125.032 140.869 125.093 140.911 125.172L143.753 130.59C143.841 130.753 143.923 130.921 143.998 131.094C144.077 131.267 144.152 131.444 144.222 131.626C144.292 131.439 144.364 131.257 144.439 131.08C144.518 130.903 144.602 130.732 144.691 130.569L147.512 125.172C147.554 125.093 147.598 125.032 147.645 124.99C147.691 124.943 147.74 124.911 147.792 124.892C147.848 124.869 147.908 124.855 147.974 124.85C148.044 124.845 148.125 124.843 148.219 124.843H149.815ZM154.045 126.488V129.099H157.433V130.688H154.045V133.355H158.399V135H151.931V124.843H158.399V126.488H154.045ZM168.671 124.843V135H167.586C167.423 135 167.285 134.974 167.173 134.923C167.061 134.867 166.952 134.774 166.844 134.643L161.783 128.203C161.797 128.366 161.807 128.527 161.811 128.686C161.821 128.845 161.825 128.992 161.825 129.127V135H159.97V124.843H161.076C161.165 124.843 161.24 124.848 161.3 124.857C161.366 124.862 161.424 124.878 161.475 124.906C161.527 124.929 161.576 124.962 161.622 125.004C161.669 125.046 161.72 125.102 161.776 125.172L166.872 131.64C166.854 131.463 166.84 131.292 166.83 131.129C166.821 130.961 166.816 130.802 166.816 130.653V124.843H168.671ZM177.987 126.537H175.019V135H172.912V126.537H169.944V124.843H177.987V126.537ZM69.6598 146.789C69.5944 146.896 69.5268 146.976 69.4568 147.027C69.3914 147.074 69.3051 147.097 69.1978 147.097C69.0951 147.097 68.9831 147.062 68.8618 146.992C68.7451 146.917 68.6074 146.838 68.4488 146.754C68.2901 146.67 68.1081 146.593 67.9028 146.523C67.6974 146.448 67.4571 146.411 67.1818 146.411C66.6964 146.411 66.3324 146.521 66.0898 146.74C65.8471 146.955 65.7258 147.237 65.7258 147.587C65.7258 147.811 65.7911 147.998 65.9218 148.147C66.0571 148.292 66.2321 148.418 66.4468 148.525C66.6661 148.632 66.9134 148.728 67.1888 148.812C67.4641 148.896 67.7464 148.989 68.0358 149.092C68.3251 149.19 68.6074 149.307 68.8828 149.442C69.1581 149.577 69.4031 149.748 69.6178 149.953C69.8371 150.158 70.0121 150.41 70.1428 150.709C70.2781 151.003 70.3458 151.362 70.3458 151.787C70.3458 152.249 70.2641 152.683 70.1008 153.089C69.9421 153.49 69.7111 153.843 69.4078 154.146C69.1044 154.445 68.7288 154.68 68.2808 154.853C67.8374 155.026 67.3334 155.112 66.7688 155.112C66.4468 155.112 66.1248 155.079 65.8028 155.014C65.4854 154.949 65.1774 154.858 64.8788 154.741C64.5848 154.624 64.3071 154.484 64.0458 154.321C63.7844 154.158 63.5558 153.976 63.3598 153.775L63.9758 152.781C64.0271 152.706 64.0948 152.646 64.1788 152.599C64.2628 152.548 64.3514 152.522 64.4448 152.522C64.5708 152.522 64.7038 152.569 64.8438 152.662C64.9838 152.755 65.1448 152.858 65.3268 152.97C65.5088 153.082 65.7188 153.185 65.9568 153.278C66.1994 153.371 66.4888 153.418 66.8248 153.418C67.3148 153.418 67.6928 153.306 67.9588 153.082C68.2294 152.858 68.3648 152.524 68.3648 152.081C68.3648 151.824 68.2971 151.617 68.1618 151.458C68.0311 151.299 67.8584 151.166 67.6438 151.059C67.4291 150.952 67.1841 150.861 66.9088 150.786C66.6334 150.707 66.3511 150.62 66.0618 150.527C65.7724 150.434 65.4901 150.322 65.2148 150.191C64.9394 150.06 64.6944 149.888 64.4798 149.673C64.2651 149.458 64.0901 149.192 63.9548 148.875C63.8241 148.558 63.7588 148.163 63.7588 147.692C63.7588 147.314 63.8334 146.948 63.9828 146.593C64.1321 146.238 64.3514 145.923 64.6408 145.648C64.9301 145.373 65.2848 145.151 65.7048 144.983C66.1294 144.815 66.6148 144.731 67.1608 144.731C67.7721 144.731 68.3368 144.827 68.8548 145.018C69.3774 145.205 69.8184 145.466 70.1778 145.802L69.6598 146.789ZM76.2146 151.094V155H74.1146V151.094L70.4256 144.843H72.2736C72.4556 144.843 72.6003 144.887 72.7076 144.976C72.8196 145.06 72.9083 145.17 72.9736 145.305L74.6396 148.504C74.7516 148.719 74.8519 148.919 74.9406 149.106C75.0339 149.293 75.1156 149.479 75.1856 149.666C75.2509 149.479 75.3256 149.293 75.4096 149.106C75.4983 148.915 75.5963 148.714 75.7036 148.504L77.3556 145.305C77.4116 145.193 77.4956 145.088 77.6076 144.99C77.7196 144.892 77.8643 144.843 78.0416 144.843H79.9036L76.2146 151.094ZM85.9566 146.789C85.8913 146.896 85.8236 146.976 85.7536 147.027C85.6883 147.074 85.602 147.097 85.4946 147.097C85.392 147.097 85.28 147.062 85.1586 146.992C85.042 146.917 84.9043 146.838 84.7456 146.754C84.587 146.67 84.405 146.593 84.1996 146.523C83.9943 146.448 83.754 146.411 83.4786 146.411C82.9933 146.411 82.6293 146.521 82.3866 146.74C82.144 146.955 82.0226 147.237 82.0226 147.587C82.0226 147.811 82.088 147.998 82.2186 148.147C82.354 148.292 82.529 148.418 82.7436 148.525C82.963 148.632 83.2103 148.728 83.4856 148.812C83.761 148.896 84.0433 148.989 84.3326 149.092C84.622 149.19 84.9043 149.307 85.1796 149.442C85.455 149.577 85.7 149.748 85.9146 149.953C86.134 150.158 86.309 150.41 86.4396 150.709C86.575 151.003 86.6426 151.362 86.6426 151.787C86.6426 152.249 86.561 152.683 86.3976 153.089C86.239 153.49 86.008 153.843 85.7046 154.146C85.4013 154.445 85.0256 154.68 84.5776 154.853C84.1343 155.026 83.6303 155.112 83.0656 155.112C82.7436 155.112 82.4216 155.079 82.0996 155.014C81.7823 154.949 81.4743 154.858 81.1756 154.741C80.8816 154.624 80.604 154.484 80.3426 154.321C80.0813 154.158 79.8526 153.976 79.6566 153.775L80.2726 152.781C80.324 152.706 80.3916 152.646 80.4756 152.599C80.5596 152.548 80.6483 152.522 80.7416 152.522C80.8676 152.522 81.0006 152.569 81.1406 152.662C81.2806 152.755 81.4416 152.858 81.6236 152.97C81.8056 153.082 82.0156 153.185 82.2536 153.278C82.4963 153.371 82.7856 153.418 83.1216 153.418C83.6116 153.418 83.9896 153.306 84.2556 153.082C84.5263 152.858 84.6616 152.524 84.6616 152.081C84.6616 151.824 84.594 151.617 84.4586 151.458C84.328 151.299 84.1553 151.166 83.9406 151.059C83.726 150.952 83.481 150.861 83.2056 150.786C82.9303 150.707 82.648 150.62 82.3586 150.527C82.0693 150.434 81.787 150.322 81.5116 150.191C81.2363 150.06 80.9913 149.888 80.7766 149.673C80.562 149.458 80.387 149.192 80.2516 148.875C80.121 148.558 80.0556 148.163 80.0556 147.692C80.0556 147.314 80.1303 146.948 80.2796 146.593C80.429 146.238 80.6483 145.923 80.9376 145.648C81.227 145.373 81.5816 145.151 82.0016 144.983C82.4263 144.815 82.9116 144.731 83.4576 144.731C84.069 144.731 84.6336 144.827 85.1516 145.018C85.6743 145.205 86.1153 145.466 86.4746 145.802L85.9566 146.789ZM95.3546 146.537H92.3866V155H90.2796V146.537H87.3116V144.843H95.3546V146.537ZM98.7288 146.488V149.099H102.117V150.688H98.7288V153.355H103.083V155H96.6148V144.843H103.083V146.488H98.7288ZM115.854 144.843V155H113.999V148.763C113.999 148.632 114.001 148.492 114.006 148.343C114.015 148.194 114.029 148.042 114.048 147.888L111.143 153.397C110.984 153.7 110.739 153.852 110.408 153.852H110.114C109.951 153.852 109.806 153.815 109.68 153.74C109.554 153.661 109.454 153.546 109.379 153.397L106.46 147.867C106.474 148.03 106.486 148.189 106.495 148.343C106.504 148.492 106.509 148.632 106.509 148.763V155H104.654V144.843H106.25C106.339 144.843 106.418 144.845 106.488 144.85C106.558 144.855 106.619 144.869 106.67 144.892C106.726 144.911 106.775 144.943 106.817 144.99C106.864 145.032 106.908 145.093 106.95 145.172L109.792 150.59C109.881 150.753 109.962 150.921 110.037 151.094C110.116 151.267 110.191 151.444 110.261 151.626C110.331 151.439 110.403 151.257 110.478 151.08C110.557 150.903 110.641 150.732 110.73 150.569L113.551 145.172C113.593 145.093 113.637 145.032 113.684 144.99C113.731 144.943 113.78 144.911 113.831 144.892C113.887 144.869 113.948 144.855 114.013 144.85C114.083 144.845 114.165 144.843 114.258 144.843H115.854Z" fill="black"/>
</svg>
