<svg width="50" height="50" viewBox="0 0 50 50" fill="none" xmlns="http://www.w3.org/2000/svg">
<path d="M46.6658 0.833252H3.33418C1.4958 0.833252 0 2.32915 0 4.16743V31.6666C0 32.1265 0.37334 32.4999 0.833301 32.4999H49.1666C49.6266 32.4999 49.9999 32.1265 49.9999 31.6666V4.16743C50 2.32915 48.5042 0.833252 46.6658 0.833252ZM48.3333 30.8333H1.6667V4.16743C1.6667 3.24741 2.41504 2.49995 3.33418 2.49995H46.6658C47.585 2.49995 48.3333 3.24741 48.3333 4.16743V30.8333Z" fill="#333333"/>
<path d="M49.1667 30.8333H0.833301C0.37334 30.8333 0 31.2066 0 31.6666V35.8324C0 37.6708 1.4958 39.1666 3.33418 39.1666H46.6658C48.5042 39.1666 50 37.6708 50 35.8324V31.6666C50 31.2066 49.6267 30.8333 49.1667 30.8333ZM48.3333 35.8325C48.3333 36.7525 47.585 37.5 46.6658 37.5H3.33418C2.41504 37.5 1.6667 36.7525 1.6667 35.8325V32.4999H48.3334V35.8325H48.3333Z" fill="#333333"/>
<path d="M27.5 34.1667H22.5C22.04 34.1667 21.6667 34.5401 21.6667 35C21.6667 35.46 22.04 35.8334 22.5 35.8334H27.5C27.9599 35.8334 28.3333 35.46 28.3333 35C28.3333 34.5401 27.9599 34.1667 27.5 34.1667Z" fill="#333333"/>
<path d="M45.8333 4.16675H4.16674C3.70677 4.16675 3.33344 4.54009 3.33344 5.00005V31.6667C3.33344 32.1267 3.70677 32.5 4.16674 32.5H45.8334C46.2934 32.5 46.6667 32.1267 46.6667 31.6667V5.00005C46.6667 4.54009 46.2934 4.16675 45.8333 4.16675ZM45 30.8334H5.00004V5.83335H45V30.8334Z" fill="#333333"/>
<path d="M35.8333 44.1667H14.1667C12.7884 44.1667 11.6667 45.2884 11.6667 46.6668C11.6667 48.0451 12.7884 49.1668 14.1667 49.1668H35.8334C37.2118 49.1668 38.3334 48.0451 38.3334 46.6668C38.3334 45.2884 37.2117 44.1667 35.8333 44.1667ZM35.8333 47.5001H14.1667C13.7068 47.5001 13.3334 47.1259 13.3334 46.6668C13.3334 46.2076 13.7068 45.8335 14.1667 45.8335H35.8334C36.2934 45.8335 36.6667 46.2076 36.6667 46.6668C36.6667 47.1259 36.2934 47.5001 35.8333 47.5001Z" fill="#333333"/>
<path d="M34.1666 44.1667C31.4016 44.1667 29.9999 42.2042 29.9999 38.3334C29.9999 37.8735 29.6266 37.5001 29.1666 37.5001H20.8334C20.3734 37.5001 20.0001 37.8735 20.0001 38.3334C20.0001 42.2042 18.5984 44.1667 15.8334 44.1667C15.3734 44.1667 15.0001 44.5401 15.0001 45C15.0001 45.46 15.3734 45.8333 15.8334 45.8333H34.1666C34.6266 45.8333 34.9999 45.46 34.9999 45C34.9999 44.5401 34.6266 44.1667 34.1666 44.1667ZM19.8924 44.1667C20.9183 43.0301 21.5224 41.3375 21.6441 39.1667H28.3566C28.4774 41.3375 29.0816 43.0301 30.1082 44.1667H19.8924Z" fill="#333333"/>
<path d="M39.82 25.3866L37.8084 23.375L38.9275 22.2559C39.135 22.0483 39.2183 21.7467 39.1466 21.4625C39.075 21.1783 38.8591 20.9533 38.5783 20.8684L30.245 18.3684C29.9509 18.28 29.6334 18.3608 29.4167 18.5775C29.1992 18.7942 29.1192 19.1125 29.2075 19.4059L31.7075 27.7392C31.7917 28.0208 32.0175 28.2366 32.3016 28.3083C32.5849 28.3783 32.8875 28.2966 33.095 28.0892L34.2733 26.91L36.2849 28.9225C36.4408 29.0791 36.6533 29.1666 36.8741 29.1666C37.0949 29.1666 37.3074 29.0791 37.4632 28.9225L39.8199 26.5649C40.1458 26.2392 40.1458 25.7125 39.82 25.3866ZM36.8741 27.155L35.0424 25.3225C34.8299 25.11 34.5516 25.0041 34.2733 25.0041C33.9941 25.0041 33.7158 25.1107 33.5042 25.3216L32.9025 25.9232L31.2483 20.4091L36.7625 22.0633L36.1174 22.7083C35.9399 22.8866 35.8424 23.1233 35.8424 23.375C35.8424 23.6275 35.9408 23.8658 36.1191 24.0425L38.0524 25.9758L36.8741 27.155Z" fill="#333333"/>
<path d="M35 7.49988H11.6667C11.2067 7.49988 10.8334 7.87322 10.8334 8.33318V12.4999C10.8334 12.9598 11.2067 13.3332 11.6667 13.3332H35C35.4599 13.3332 35.8333 12.9598 35.8333 12.4999V8.33318C35.8333 7.87322 35.4599 7.49988 35 7.49988ZM34.1667 11.6666H12.5V9.16658H34.1667V11.6666Z" fill="#333333"/>
<path d="M21.6667 16.6667H15C14.54 16.6667 14.1667 17.0401 14.1667 17.5V20.8333C14.1667 21.2933 14.54 21.6666 15 21.6666H21.6667C22.1266 21.6666 22.5 21.2933 22.5 20.8333V17.5C22.5 17.0401 22.1266 16.6667 21.6667 16.6667ZM20.8333 20H15.8333V18.3333H20.8333V20Z" fill="#333333"/>
<path d="M35 7.49988H11.6667C11.2067 7.49988 10.8334 7.87322 10.8334 8.33318V24.1665C10.8334 24.6264 11.2067 24.9998 11.6667 24.9998H31.5051C31.7692 24.9998 32.0167 24.8757 32.1734 24.6639C32.3309 24.4523 32.3793 24.179 32.3034 23.9264L31.2484 20.409L34.7609 21.4632C35.0135 21.539 35.2868 21.4907 35.4975 21.3332C35.7092 21.1765 35.8334 20.9282 35.8334 20.6648V8.33318C35.8333 7.87322 35.4599 7.49988 35 7.49988ZM34.1667 19.5449L30.2441 18.3682C29.95 18.2799 29.6325 18.3607 29.4158 18.5774C29.1983 18.7949 29.1183 19.1124 29.2066 19.4066L30.3849 23.3333H12.5V9.16658H34.1667V19.5449Z" fill="#333333"/>
</svg>
