<svg width="126" height="137" viewBox="0 0 126 137" fill="none" xmlns="http://www.w3.org/2000/svg">
<path d="M77.8538 50.003L95.3837 19.7844L103.854 50.003L95.3833 80.2144L77.8538 50.003ZM69.3099 54.9104L86.8421 85.1241L56.3086 77.3151L34.2502 54.9104H69.3099ZM86.8383 14.8732L69.3099 45.0918H34.2502L56.3086 22.6856L86.8383 14.8732ZM111.863 39.719L101.169 0L61.2521 10.6447L55.3433 21.0156L43.3534 20.9299L14.1368 50.0057L43.3534 79.0747H43.3546L55.3395 78.9862L61.2567 89.3572L101.169 100L111.863 60.2886L105.789 50.0034L111.863 39.719Z" fill="#222C37"/>
<path d="M46.6409 132.32C46.9816 132.32 47.2873 132.264 47.5579 132.152C47.8286 132.035 48.0573 131.872 48.2439 131.662C48.4306 131.452 48.5729 131.198 48.6709 130.899C48.7689 130.6 48.8179 130.264 48.8179 129.891V123.843H50.9179V129.891C50.9179 130.507 50.8176 131.074 50.6169 131.592C50.4209 132.105 50.1386 132.549 49.7699 132.922C49.4013 133.295 48.9533 133.587 48.4259 133.797C47.8986 134.007 47.3036 134.112 46.6409 134.112C45.9783 134.112 45.3809 134.007 44.8489 133.797C44.3216 133.587 43.8736 133.295 43.5049 132.922C43.1363 132.549 42.8516 132.105 42.6509 131.592C42.4549 131.074 42.3569 130.507 42.3569 129.891V123.843H44.4569V129.891C44.4569 130.264 44.5059 130.6 44.6039 130.899C44.7019 131.198 44.8443 131.452 45.0309 131.662C45.2176 131.872 45.4463 132.035 45.7169 132.152C45.9876 132.264 46.2956 132.32 46.6409 132.32ZM61.6156 123.843V134H60.5306C60.3673 134 60.2296 133.974 60.1176 133.923C60.0056 133.867 59.8959 133.774 59.7886 133.643L54.7276 127.203C54.7416 127.366 54.7509 127.527 54.7556 127.686C54.7649 127.845 54.7696 127.992 54.7696 128.127V134H52.9146V123.843H54.0206C54.1093 123.843 54.1839 123.848 54.2446 123.857C54.3099 123.862 54.3683 123.878 54.4196 123.906C54.4709 123.929 54.5199 123.962 54.5666 124.004C54.6133 124.046 54.6646 124.102 54.7206 124.172L59.8166 130.64C59.7979 130.463 59.7839 130.292 59.7746 130.129C59.7653 129.961 59.7606 129.802 59.7606 129.653V123.843H61.6156ZM65.8567 134H63.7427V123.843H65.8567V134ZM75.17 125.537H72.202V134H70.095V125.537H67.127V123.843H75.17V125.537ZM81.0222 130.094V134H78.9222V130.094L75.2332 123.843H77.0812C77.2632 123.843 77.4079 123.887 77.5152 123.976C77.6272 124.06 77.7159 124.17 77.7812 124.305L79.4472 127.504C79.5592 127.719 79.6595 127.919 79.7482 128.106C79.8415 128.293 79.9232 128.479 79.9932 128.666C80.0585 128.479 80.1332 128.293 80.2172 128.106C80.3059 127.915 80.4039 127.714 80.5112 127.504L82.1632 124.305C82.2192 124.193 82.3032 124.088 82.4152 123.99C82.5272 123.892 82.6719 123.843 82.8492 123.843H84.7112L81.0222 130.094Z" fill="#231F20"/>
</svg>
