<?xml version="1.0" encoding="UTF-8"?>
<svg xmlns="http://www.w3.org/2000/svg" id="outline" viewBox="0 0 512 512" width="512" height="512"><path d="M464,16H434.27441A166.90227,166.90227,0,0,0,315.48047,65.20605L303.59668,77.08984A73.26518,73.26518,0,0,0,304,69.49023V56a8.00008,8.00008,0,0,0-8-8H282.50977a71.53149,71.53149,0,0,0-50.91163,21.08789l-74.18542,74.18555L60.92383,132.05371a8.00065,8.00065,0,0,0-6.58057,2.28906l-20,20a8.00034,8.00034,0,0,0,0,11.31446L84.686,216,74.34326,226.34277A8.00076,8.00076,0,0,0,72,232v24a8.00076,8.00076,0,0,0,2.34326,5.65723L96.93481,284.249A7.99545,7.99545,0,0,0,96,288v40a8.00076,8.00076,0,0,0,2.34326,5.65723l10.918,10.918A103.96779,103.96779,0,0,0,16,448v40a8.00008,8.00008,0,0,0,8,8H64a103.96577,103.96577,0,0,0,103.4248-93.26123l10.91846,10.91846A8.00035,8.00035,0,0,0,184,416h40a8.00419,8.00419,0,0,0,3.75122-.93457l22.592,22.5918A8.00035,8.00035,0,0,0,256,440h24a8.00035,8.00035,0,0,0,5.65674-2.34277L296,427.314l50.34326,50.34327a8.00063,8.00063,0,0,0,11.31348,0l20-20a7.99993,7.99993,0,0,0,2.28955-6.58106L368.72668,354.5874l74.18494-74.18506A71.52767,71.52767,0,0,0,464,229.49023V216a8.00008,8.00008,0,0,0-8-8H442.50977a73.2484,73.2484,0,0,0-7.59864.40332L446.794,196.52051A166.9025,166.9025,0,0,0,496,77.72559V48A32.03635,32.03635,0,0,0,464,16ZM242.91162,80.40234A55.63486,55.63486,0,0,1,282.50977,64H288v5.49023a55.63106,55.63106,0,0,1-16.40186,39.59766l-37.25488,37.25488.00025.00025-5.26392,5.26367-51.396-5.97632ZM62.92041,148.39355,214.65,166.03638,136,244.686,51.314,160ZM88,235.31348l7.99988-7.99952L124.686,256,108,272.686,88,252.68652Zm24,177.373L99.31348,400,200,299.31348,212.68652,312ZM132,344.686l-20-19.99952V291.314L148.686,328ZM116.80029,462.39941A88.55235,88.55235,0,0,1,64,480H32V448a87.98551,87.98551,0,0,1,84.61145-87.92529L82.34326,394.34277a8.00034,8.00034,0,0,0,0,11.31446l24,24a8.00063,8.00063,0,0,0,11.31348,0l34.2688-34.26856A88.44585,88.44585,0,0,1,116.80029,462.39941ZM167.314,380,184,363.314,220.686,400H187.314Zm109.37256,44h-17.373L239.314,404,256,387.314,284.68616,416ZM352,460.68652,267.314,376l78.64979-78.64941,17.6427,151.72949ZM442.50977,224H448v5.49023a55.63106,55.63106,0,0,1-16.40186,39.59766l-65.22851,65.22852-5.97632-51.39551,42.52649-42.52637A55.63456,55.63456,0,0,1,442.50977,224Zm-7.0293-38.79395-43.87415,43.874-.00818.00781-37.25488,37.25488h.00012L232,388.686,195.314,352l34.34278-34.34277a8.00034,8.00034,0,0,0,0-11.31446l-24-24a8.00182,8.00182,0,0,0-11.31348,0L160,316.686,123.31372,280,326.794,76.52051a154.00154,154.00154,0,0,1,18.57543-15.83716L451.317,166.63086A153.97643,153.97643,0,0,1,435.48047,185.20605ZM480,77.72559a151.12735,151.12735,0,0,1-19.80688,75.15356l-101.072-101.072A151.12645,151.12645,0,0,1,434.27441,32H464a16.01833,16.01833,0,0,1,16,16Z"/><path d="M357.65674,138.34277A8.00035,8.00035,0,0,0,352,136H304a8.00035,8.00035,0,0,0-5.65674,2.34277l-8,8a8.00034,8.00034,0,0,0,0,11.31446l64,64a8.00063,8.00063,0,0,0,11.31348,0l8-8A8.00076,8.00076,0,0,0,376,208V160a8.00076,8.00076,0,0,0-2.34326-5.65723ZM360,204.68652,307.31348,152h41.373L360,163.31348Z"/></svg>
