<svg height="496pt" viewBox="0 0 496 496" width="496pt" xmlns="http://www.w3.org/2000/svg"><path d="m488 136h-27.863281c-3.304688-13.800781-8.6875-26.816406-16.039063-38.839844l19.671875-19.671875c1.503907-1.503906 2.34375-3.535156 2.34375-5.65625 0-2.121093-.839843-4.160156-2.34375-5.65625l-33.945312-33.945312c-3-3-8.320313-3-11.3125 0l-19.671875 19.671875c-12.03125-7.351563-25.046875-12.726563-38.839844-16.039063v-27.863281c0-4.414062-3.574219-8-8-8h-48c-4.425781 0-8 3.585938-8 8v27.863281c-13.792969 3.3125-26.808594 8.679688-38.832031 16.039063l-19.671875-19.671875c-1.503906-1.503907-3.527344-2.34375-5.65625-2.34375s-4.160156.839843-5.65625 2.34375l-33.945313 33.945312c-1.503906 1.503907-2.34375 3.535157-2.34375 5.65625 0 2.121094.839844 4.160157 2.34375 5.65625l19.671875 19.671875c-7.351562 12.023438-12.734375 25.039063-16.039062 38.839844h-27.871094c-4.425781 0-8 3.585938-8 8v16h-120c-13.230469 0-24 10.769531-24 24v232h-8c-4.425781 0-8 3.585938-8 8v32c0 22.054688 17.945312 40 40 40h352c22.054688 0 40-17.945312 40-40v-32c0-4.414062-3.574219-8-8-8h-8v-114.742188l2.503906 2.511719c1.503906 1.503907 3.527344 2.34375 5.65625 2.34375s4.160156-.839843 5.65625-2.34375l33.945313-33.945312c1.503906-1.503907 2.34375-3.535157 2.34375-5.65625 0-2.121094-.839844-4.160157-2.34375-5.65625l-19.671875-19.671875c7.351562-12.023438 12.734375-25.039063 16.039062-38.839844h27.871094c4.425781 0 8-3.585938 8-8v-48c0-4.414062-3.574219-8-8-8zm-72 320c0 13.230469-10.769531 24-24 24h-352c-13.230469 0-24-10.769531-24-24v-24h96v8c0 13.230469 10.769531 24 24 24h160c13.230469 0 24-10.769531 24-24v-8h96zm-288-24h176v8c0 4.40625-3.585938 8-8 8h-160c-4.414062 0-8-3.59375-8-8zm272-16h-368v-232c0-4.40625 3.585938-8 8-8h120v16c0 4.414062 3.574219 8 8 8h27.863281c3.304688 13.800781 8.6875 26.816406 16.039063 38.839844l-19.671875 19.671875c-1.503907 1.503906-2.34375 3.535156-2.34375 5.65625 0 2.121093.839843 4.160156 2.34375 5.65625l33.945312 33.945312c3.007813 3.007813 8.320313 2.992188 11.3125 0l19.671875-19.671875c12.03125 7.359375 25.046875 12.734375 38.832032 16.039063v27.863281c0 4.414062 3.574218 8 8 8h48c4.421874 0 8-3.585938 8-8v-27.863281c13.792968-3.3125 26.808593-8.679688 38.832031-16.039063l1.175781 1.160156zm80-232h-26.328125c-3.839844 0-7.144531 2.734375-7.855469 6.503906-3.089844 16.257813-9.328125 31.367188-18.550781 44.921875-2.167969 3.175781-1.769531 7.445313.949219 10.160157l18.585937 18.582031-22.632812 22.632812-18.574219-18.585937c-2.722656-2.710938-6.984375-3.109375-10.160156-.957032-13.570313 9.230469-28.679688 15.476563-44.921875 18.558594-3.777344.710938-6.511719 4.015625-6.511719 7.855469v26.328125h-32v-26.328125c0-3.839844-2.734375-7.144531-6.503906-7.855469-16.238282-3.082031-31.351563-9.328125-44.921875-18.558594-3.167969-2.152343-7.429688-1.761718-10.160157.957032l-18.574218 18.585937-22.632813-22.632812 18.585938-18.582031c2.71875-2.714844 3.117187-6.984376.949219-10.160157-9.222657-13.554687-15.46875-28.664062-18.550782-44.921875-.71875-3.769531-4.023437-6.503906-7.863281-6.503906h-26.328125v-32h26.328125c3.839844 0 7.144531-2.734375 7.855469-6.503906 3.089844-16.257813 9.328125-31.367188 18.550781-44.921875 2.167969-3.175781 1.769531-7.445313-.949219-10.160157l-18.585937-18.582031 22.632812-22.632812 18.574219 18.585937c2.722656 2.71875 6.984375 3.117188 10.160156.957032 13.570313-9.230469 28.679688-15.476563 44.921875-18.558594 3.777344-.710938 6.511719-4.015625 6.511719-7.855469v-26.328125h32v26.328125c0 3.839844 2.734375 7.144531 6.503906 7.855469 16.238282 3.082031 31.351563 9.328125 44.921875 18.558594 3.175781 2.167968 7.4375 1.769531 10.160157-.957032l18.574218-18.585937 22.632813 22.632812-18.585938 18.582031c-2.71875 2.714844-3.117187 6.984376-.949219 10.160157 9.222657 13.554687 15.46875 28.664062 18.550782 44.921875.71875 3.769531 4.023437 6.503906 7.863281 6.503906h26.328125zm0 0"/><path d="m328 64c-57.34375 0-104 46.65625-104 104s46.65625 104 104 104 104-46.65625 104-104-46.65625-104-104-104zm-8 191.59375v-41.371094c0-3.351562-2.089844-6.34375-5.230469-7.503906-16.007812-5.902344-26.769531-21.808594-26.769531-39.574219 0-13.441406 6.121094-25.808593 16-33.601562v33.601562c0 2.0625.800781 4.046875 2.222656 5.542969l16 16.664062c3.035156 3.144532 8.511719 3.144532 11.546875 0l16-16.664062c1.429688-1.496094 2.230469-3.480469 2.230469-5.542969v-33.601562c9.878906 7.792969 16 20.160156 16 33.601562 0 17.765625-10.761719 33.671875-26.769531 39.574219-3.140625 1.160156-5.230469 4.152344-5.230469 7.503906v41.371094c-2.640625.238281-5.296875.40625-8 .40625s-5.359375-.167969-8-.40625zm32-3v-33.105469c19.351562-9.511719 32-29.871093 32-52.34375 0-24.496093-14.960938-46.457031-37.230469-54.648437-2.464843-.902344-5.203125-.550782-7.34375.945312-2.144531 1.496094-3.425781 3.949219-3.425781 6.558594v43.921875l-8 8.324219-8-8.324219v-43.921875c0-2.617188-1.28125-5.0625-3.425781-6.558594-2.148438-1.503906-4.878907-1.839844-7.34375-.945312-22.269531 8.191406-37.230469 30.160156-37.230469 54.648437 0 22.472657 12.648438 42.832031 32 52.34375v33.105469c-36.878906-10.480469-64-44.394531-64-84.59375 0-48.519531 39.480469-88 88-88s88 39.480469 88 88c0 40.191406-27.121094 74.105469-64 84.59375zm0 0"/><path d="m368 384h-304v-176h80v-16h-88c-4.425781 0-8 3.585938-8 8v192c0 4.414062 3.574219 8 8 8h320c4.425781 0 8-3.585938 8-8v-40h-16zm0 0"/></svg>