<svg height="512pt" viewBox="0 -1 512.00007 512" width="512pt" xmlns="http://www.w3.org/2000/svg"><path d="m509.019531 247.839844c-33.949219-41.441406-73.53125-73.570313-117.648437-95.53125-42.492188-21.148438-87.382813-32.007813-133.449219-32.296875-.640625-.011719-1.28125-.011719-1.921875-.011719s-1.28125 0-1.921875.011719c-46.066406.289062-90.957031 11.148437-133.449219 32.296875-44.117187 21.960937-83.699218 54.089844-117.648437 95.519531-1.980469 1.953125-2.9921878 4.550781-2.980469 7.171875-.0117188 2.621094 1 5.21875 2.980469 7.171875 33.949219 41.429687 73.53125 73.558594 117.648437 95.519531 42.492188 21.148438 87.382813 32.007813 133.449219 32.296875.640625.011719 1.28125.011719 1.921875.011719s1.28125 0 1.921875-.011719c46.066406-.289062 90.957031-11.148437 133.449219-32.296875 44.257812-22.019531 83.949218-54.292968 117.96875-95.921875 1.671875-1.820312 2.660156-4.238281 2.660156-6.808593 0-2.742188-1.109375-5.28125-2.980469-7.121094zm-379.480469 91.949218c-39.597656-19.710937-75.398437-48.210937-106.488281-84.789062 31.089844-36.578125 66.890625-65.078125 106.488281-84.789062 11.660157-5.800782 23.511719-10.769532 35.519532-14.910157-27.058594 24.710938-44.058594 60.257813-44.058594 99.699219s17 74.988281 44.058594 99.699219c-12.007813-4.140625-23.859375-9.109375-35.519532-14.910157zm126.460938 30.210938c-63.410156 0-115-51.589844-115-115s51.589844-115 115-115 115 51.589844 115 115-51.589844 115-115 115zm126.460938-30.210938c-11.660157 5.800782-23.511719 10.769532-35.519532 14.910157 27.058594-24.710938 44.058594-60.257813 44.058594-99.699219s-17-74.988281-44.058594-99.699219c12.007813 4.140625 23.859375 9.109375 35.519532 14.910157 39.597656 19.710937 75.398437 48.210937 106.488281 84.789062-31.089844 36.578125-66.890625 65.078125-106.488281 84.789062zm0 0"/><path d="m256 310c-30.328125 0-55-24.671875-55-55s24.671875-55 55-55 55 24.671875 55 55-24.671875 55-55 55zm0-90c-19.300781 0-35 15.699219-35 35s15.699219 35 35 35 35-15.699219 35-35-15.699219-35-35-35zm0 0"/><path d="m256 469.953125c-5.523438 0-10-4.476563-10-10v-40c0-5.519531 4.476562-10 10-10s10 4.480469 10 10v40c0 5.523437-4.476562 10-10 10zm0 0"/><path d="m330.144531 458.238281c-2.5625 0-5.121093-.976562-7.074219-2.929687l-28.285156-28.28125c-3.902344-3.90625-3.902344-10.238282 0-14.144532 3.90625-3.902343 10.238282-3.90625 14.144532 0l28.285156 28.285157c3.90625 3.90625 3.90625 10.238281 0 14.140625-1.953125 1.953125-4.511719 2.929687-7.070313 2.929687zm0 0"/><path d="m181.855469 458.238281c-2.558594 0-5.117188-.976562-7.070313-2.929687-3.902344-3.902344-3.902344-10.234375 0-14.140625l28.285156-28.285157c3.910157-3.902343 10.238282-3.902343 14.144532 0 3.902344 3.90625 3.902344 10.238282 0 14.144532l-28.285156 28.28125c-1.953126 1.953125-4.511719 2.929687-7.074219 2.929687zm0 0"/><path d="m256 99.953125c-5.523438 0-10-4.476563-10-10v-40c0-5.519531 4.476562-10 10-10s10 4.480469 10 10v40c0 5.523437-4.476562 10-10 10zm0 0"/><path d="m210.144531 99.953125c-2.5625 0-5.121093-.972656-7.074219-2.925781l-28.285156-28.285156c-3.902344-3.90625-3.902344-10.238282 0-14.140626 3.90625-3.90625 10.238282-3.90625 14.144532 0l28.285156 28.28125c3.90625 3.90625 3.90625 10.238282 0 14.144532-1.953125 1.949218-4.511719 2.925781-7.070313 2.925781zm0 0"/><path d="m301.855469 99.953125c-2.558594 0-5.117188-.972656-7.070313-2.925781-3.902344-3.90625-3.902344-10.238282 0-14.144532l28.285156-28.28125c3.90625-3.90625 10.238282-3.90625 14.144532 0 3.90625 3.902344 3.902344 10.234376 0 14.140626l-28.285156 28.285156c-1.953126 1.949218-4.511719 2.925781-7.074219 2.925781zm0 0"/><path d="m256.019531 20c-5.519531 0-10.003906-4.476562-10.003906-10s4.472656-10 9.996094-10h.007812c5.523438 0 10 4.476562 10 10s-4.476562 10-10 10zm0 0"/><path d="m256.019531 510c-5.519531 0-10.003906-4.476562-10.003906-10s4.472656-10 9.996094-10h.007812c5.523438 0 10 4.476562 10 10s-4.476562 10-10 10zm0 0"/></svg>